# xmcd
# Track frame offsets:
# 150
# 14402
# 26222
# 39767
# 49860
# 59317
# 71335
# 82667
# 92625
# 107677
# 123012
# 139502
# 154627
#
# Disc length: 2197 seconds
# Revision: 0
# Processed by: cddbd v1.4PL0 Copyright (c) Steve Scherf et al.
# Submitted via: VisiTrax 2.9.5.180 - For more info visit www.synapsa.com
#
DISCID=9408930d
DTITLE=Fishbone Fred - The world's geratest fishing songs vol 2
DYEAR=1996
DGENRE=
TTITLE0=Underwater boogie woogie
TTITLE1=Charlie's tuna
TTITLE2=Looking at the land
TTITLE3=Crow up a little
TTITLE4=Hostage or home with you
TTITLE5=Debutantes fishin'
TTITLE6=Blue Stone River
TTITLE7=Half my wife
TTITLE8=Like an old river boat
TTITLE9=Catfish creek
TTITLE10=Fishin' in heaven
TTITLE11=Sticks and strings again
TTITLE12=Bubba
EXTD=
EXTT0=
EXTT1=
EXTT2=
EXTT3=
EXTT4=
EXTT5=
EXTT6=
EXTT7=
EXTT8=
EXTT9=
EXTT10=
EXTT11=
EXTT12=
PLAYORDER=
